<?xml version="1.0" encoding="UTF-8" standalone="no"?>
<!-- Created with Inkscape (http://www.inkscape.org/) -->

<svg
   width="84.542358mm"
   height="36.5606mm"
   viewBox="0 0 84.542358 36.5606"
   version="1.1"
   id="svg5"
   inkscape:version="1.1.1 (3bf5ae0d25, 2021-09-20, custom)"
   sodipodi:docname="logo.svg"
   xmlns:inkscape="http://www.inkscape.org/namespaces/inkscape"
   xmlns:sodipodi="http://sodipodi.sourceforge.net/DTD/sodipodi-0.dtd"
   xmlns:xlink="http://www.w3.org/1999/xlink"
   xmlns="http://www.w3.org/2000/svg"
   xmlns:svg="http://www.w3.org/2000/svg">
  <sodipodi:namedview
     id="namedview7"
     pagecolor="#ffffff"
     bordercolor="#666666"
     borderopacity="1.0"
     inkscape:pageshadow="2"
     inkscape:pageopacity="0.0"
     inkscape:pagecheckerboard="0"
     inkscape:document-units="mm"
     showgrid="false"
     inkscape:lockguides="true"
     fit-margin-top="0"
     fit-margin-left="0"
     fit-margin-right="0"
     fit-margin-bottom="0"
     inkscape:zoom="1.8788349"
     inkscape:cx="119.22282"
     inkscape:cy="61.740389"
     inkscape:window-width="1920"
     inkscape:window-height="1011"
     inkscape:window-x="0"
     inkscape:window-y="0"
     inkscape:window-maximized="1"
     inkscape:current-layer="layer1">
    <inkscape:grid
       type="xygrid"
       id="grid10801"
       originx="-39.033554"
       originy="-203.72917" />
  </sodipodi:namedview>
  <defs
     id="defs2">
    <linearGradient
       inkscape:collect="always"
       id="linearGradient28962">
      <stop
         style="stop-color:#6548c7;stop-opacity:1"
         offset="0"
         id="stop28958" />
      <stop
         style="stop-color:#0d81ff;stop-opacity:1"
         offset="1"
         id="stop28960" />
    </linearGradient>
    <linearGradient
       inkscape:collect="always"
       xlink:href="#linearGradient28962"
       id="linearGradient28964"
       x1="85.989586"
       y1="224.89583"
       x2="85.989586"
       y2="203.72917"
       gradientUnits="userSpaceOnUse"
       gradientTransform="translate(0,1.3599397)" />
    <filter
       inkscape:collect="always"
       style="color-interpolation-filters:sRGB"
       id="filter32709"
       x="-0.08650188"
       y="-0.08650188"
       width="1.1730038"
       height="1.1730038">
      <feGaussianBlur
         inkscape:collect="always"
         stdDeviation="0.76289849"
         id="feGaussianBlur32711" />
    </filter>
  </defs>
  <g
     inkscape:label="Layer 1"
     inkscape:groupmode="layer"
     id="layer1"
     transform="translate(-39.033555,-203.72917)">
    <circle
       style="fill:#020202;fill-opacity:1;stroke-width:0.529167;stroke-linecap:round;stroke-linejoin:round;paint-order:markers stroke fill;filter:url(#filter32709)"
       id="circle32617"
       cx="81.304733"
       cy="215.67244"
       r="10.583333" />
    <g
       aria-label="XtraSmallStuff"
       id="text16564"
       style="font-size:10.5833px;line-height:1.25;stroke-width:0.264583">
      <path
         d="m 46.683506,230.42805 1.984368,3.20205 h 0.06013 l 1.984368,-3.20205 h 1.097416 l -2.420328,3.84848 2.420328,3.84847 h -1.097416 l -1.984368,-3.14192 h -0.06013 L 46.683506,238.125 H 45.58609 l 2.48046,-3.84847 -2.48046,-3.84848 z"
         style="font-weight:normal"
         id="path33359" />
      <path
         d="m 55.41774,232.35229 v 0.75166 h -1.232714 v 3.36741 q 0,0.37583 0.10899,0.56374 0.112748,0.18416 0.285629,0.24805 0.176639,0.0601 0.372069,0.0601 0.146573,0 0.240529,-0.015 0.09396,-0.0188 0.150331,-0.0301 l 0.180398,0.79675 q -0.0902,0.0338 -0.251805,0.0676 -0.161606,0.0376 -0.409652,0.0376 -0.375827,0 -0.736621,-0.16161 -0.357036,-0.16161 -0.593808,-0.49233 -0.233013,-0.33073 -0.233013,-0.83434 v -3.60794 h -0.871919 v -0.75166 h 0.871919 v -1.38304 h 0.886953 v 1.38304 z"
         style="font-weight:normal"
         id="path33361" />
      <path
         d="m 56.755682,238.125 v -5.77271 h 0.856886 v 0.87192 h 0.06013 q 0.157848,-0.42844 0.571258,-0.69528 0.41341,-0.26684 0.932052,-0.26684 0.09772,0 0.244288,0.004 0.146573,0.004 0.221738,0.0113 v 0.90198 q -0.0451,-0.0113 -0.206705,-0.0338 -0.157848,-0.0263 -0.334486,-0.0263 -0.63139,0 -1.044801,0.38334 -0.41341,0.38335 -0.41341,0.96964 v 3.65304 z"
         style="font-weight:normal"
         id="path33363" />
      <path
         d="m 62.393102,238.2603 q -0.548708,0 -0.995943,-0.20671 -0.447234,-0.21046 -0.710313,-0.60508 -0.26308,-0.39838 -0.26308,-0.96212 0,-0.49609 0.195431,-0.80427 0.19543,-0.31193 0.5224,-0.48857 0.32697,-0.17664 0.721588,-0.26308 0.398377,-0.0902 0.800513,-0.14282 0.526158,-0.0677 0.853128,-0.10147 0.330728,-0.0376 0.481059,-0.12402 0.154089,-0.0864 0.154089,-0.30067 v -0.0301 q 0,-0.55623 -0.30442,-0.8644 -0.300662,-0.30818 -0.91326,-0.30818 -0.635149,0 -0.995943,0.27811 -0.360794,0.27811 -0.507367,0.59381 l -0.841853,-0.30067 q 0.225496,-0.52615 0.601323,-0.8193 0.379586,-0.2969 0.826821,-0.41341 0.450993,-0.12026 0.886952,-0.12026 0.278113,0 0.638907,0.0676 0.364553,0.0639 0.702797,0.26684 0.342003,0.20295 0.5675,0.6126 0.225496,0.40965 0.225496,1.09742 v 3.80337 h -0.886953 v -0.78172 h -0.0451 q -0.0902,0.18791 -0.300662,0.40213 -0.210463,0.21423 -0.559983,0.36456 -0.349519,0.15033 -0.853128,0.15033 z m 0.135298,-0.79676 q 0.526158,0 0.886953,-0.2067 0.364552,-0.20671 0.548708,-0.53368 0.187913,-0.32697 0.187913,-0.68776 v -0.81179 q -0.05637,0.0676 -0.248046,0.12403 -0.187913,0.0526 -0.43596,0.0939 -0.244287,0.0376 -0.4773,0.0677 -0.229255,0.0263 -0.372069,0.0451 -0.345762,0.0451 -0.646424,0.14657 -0.296903,0.0977 -0.481059,0.29691 -0.180397,0.19543 -0.180397,0.53367 0,0.46227 0.342003,0.69904 0.345761,0.23301 0.875678,0.23301 z"
         style="font-weight:normal"
         id="path33365" />
      <path
         d="m 70.992038,232.35229 q -0.06765,-0.57126 -0.548708,-0.88695 -0.481059,-0.3157 -1.180098,-0.3157 -0.766688,0 -1.232714,0.36456 -0.466026,0.36079 -0.466026,0.91326 0,0.41341 0.251805,0.66897 0.255562,0.2518 0.601324,0.39462 0.349519,0.13905 0.635148,0.21422 l 0.781721,0.21046 q 0.300662,0.0789 0.668973,0.21798 0.372069,0.13906 0.710313,0.37959 0.342003,0.23677 0.563742,0.60884 0.221738,0.37207 0.221738,0.91326 0,0.62387 -0.32697,1.12748 -0.323212,0.50361 -0.947085,0.80051 -0.620115,0.29691 -1.507068,0.29691 -1.24023,0 -1.969336,-0.58629 -0.729105,-0.58629 -0.796754,-1.53338 h 0.962118 q 0.03758,0.43596 0.293146,0.72159 0.259321,0.28187 0.653939,0.42093 0.398378,0.13529 0.856887,0.13529 0.533675,0 0.95836,-0.17288 0.424685,-0.17663 0.672731,-0.48857 0.248046,-0.3157 0.248046,-0.73662 0,-0.38335 -0.214222,-0.62388 -0.214221,-0.24053 -0.563741,-0.39086 -0.349519,-0.15033 -0.755413,-0.26308 l -0.947085,-0.27059 q -0.901986,-0.25932 -1.428144,-0.74038 -0.526158,-0.48106 -0.526158,-1.25902 0,-0.64643 0.349519,-1.12749 0.353278,-0.48481 0.947085,-0.75165 0.597566,-0.2706 1.334187,-0.2706 0.744139,0 1.322913,0.26684 0.578774,0.26308 0.917019,0.72159 0.342003,0.45851 0.360794,1.04104 z"
         style="font-weight:normal"
         id="path33367" />
      <path
         d="m 73.412377,238.125 v -5.77271 h 0.856886 v 0.90199 h 0.07517 q 0.180397,-0.46227 0.582532,-0.71783 0.402136,-0.25932 0.965877,-0.25932 0.571257,0 0.950843,0.25932 0.383344,0.25556 0.597566,0.71783 h 0.06013 q 0.221738,-0.44724 0.665215,-0.71032 0.443476,-0.26683 1.063591,-0.26683 0.774205,0 1.266538,0.48481 0.492334,0.48106 0.492334,1.49955 v 3.86351 h -0.886952 v -3.86351 q 0,-0.6389 -0.34952,-0.91326 -0.349519,-0.27435 -0.823062,-0.27435 -0.60884,0 -0.943327,0.36831 -0.334486,0.36455 -0.334486,0.92454 v 3.75827 h -0.901986 v -3.9537 q 0,-0.49234 -0.319453,-0.793 -0.319453,-0.30442 -0.823062,-0.30442 -0.345761,0 -0.646423,0.18416 -0.296904,0.18415 -0.481059,0.51112 -0.180397,0.32321 -0.180397,0.7479 v 3.60794 z"
         style="font-weight:normal"
         id="path33369" />
      <path
         d="m 84.311369,238.2603 q -0.548708,0 -0.995942,-0.20671 -0.447235,-0.21046 -0.710314,-0.60508 -0.263079,-0.39838 -0.263079,-0.96212 0,-0.49609 0.19543,-0.80427 0.19543,-0.31193 0.5224,-0.48857 0.32697,-0.17664 0.721589,-0.26308 0.398377,-0.0902 0.800512,-0.14282 0.526158,-0.0677 0.853128,-0.10147 0.330728,-0.0376 0.481059,-0.12402 0.15409,-0.0864 0.15409,-0.30067 v -0.0301 q 0,-0.55623 -0.304421,-0.8644 -0.300662,-0.30818 -0.91326,-0.30818 -0.635149,0 -0.995943,0.27811 -0.360794,0.27811 -0.507367,0.59381 l -0.841853,-0.30067 q 0.225496,-0.52615 0.601324,-0.8193 0.379585,-0.2969 0.82682,-0.41341 0.450993,-0.12026 0.886953,-0.12026 0.278112,0 0.638906,0.0676 0.364553,0.0639 0.702797,0.26684 0.342003,0.20295 0.5675,0.6126 0.225496,0.40965 0.225496,1.09742 v 3.80337 h -0.886952 v -0.78172 h -0.0451 q -0.0902,0.18791 -0.300662,0.40213 -0.210463,0.21423 -0.559982,0.36456 -0.34952,0.15033 -0.853129,0.15033 z m 0.135298,-0.79676 q 0.526159,0 0.886953,-0.2067 0.364552,-0.20671 0.548708,-0.53368 0.187914,-0.32697 0.187914,-0.68776 v -0.81179 q -0.05637,0.0676 -0.248047,0.12403 -0.187913,0.0526 -0.435959,0.0939 -0.244288,0.0376 -0.477301,0.0677 -0.229255,0.0263 -0.372069,0.0451 -0.345761,0.0451 -0.646423,0.14657 -0.296904,0.0977 -0.481059,0.29691 -0.180398,0.19543 -0.180398,0.53367 0,0.46227 0.342003,0.69904 0.345762,0.23301 0.875678,0.23301 z"
         style="font-weight:normal"
         id="path33371" />
      <path
         d="m 89.467726,230.42805 v 7.69695 h -0.886953 v -7.69695 z"
         style="font-weight:normal"
         id="path33373" />
      <path
         d="M 91.978243,230.42805 V 238.125 H 91.09129 v -7.69695 z"
         style="font-weight:normal"
         id="path33375" />
      <path
         d="m 97.931339,232.35229 q -0.06765,-0.57126 -0.548708,-0.88695 -0.481059,-0.3157 -1.180098,-0.3157 -0.766688,0 -1.232714,0.36456 -0.466026,0.36079 -0.466026,0.91326 0,0.41341 0.251804,0.66897 0.255563,0.2518 0.601324,0.39462 0.34952,0.13905 0.635148,0.21422 l 0.781721,0.21046 q 0.300662,0.0789 0.668973,0.21798 0.372069,0.13906 0.710314,0.37959 0.342003,0.23677 0.563741,0.60884 0.221738,0.37207 0.221738,0.91326 0,0.62387 -0.32697,1.12748 -0.323211,0.50361 -0.947085,0.80051 -0.620115,0.29691 -1.507067,0.29691 -1.240231,0 -1.969336,-0.58629 -0.729105,-0.58629 -0.796754,-1.53338 h 0.962118 q 0.03758,0.43596 0.293145,0.72159 0.259321,0.28187 0.65394,0.42093 0.398377,0.13529 0.856887,0.13529 0.533674,0 0.958359,-0.17288 0.424685,-0.17663 0.672731,-0.48857 0.248047,-0.3157 0.248047,-0.73662 0,-0.38335 -0.214222,-0.62388 -0.214222,-0.24053 -0.563741,-0.39086 -0.34952,-0.15033 -0.755413,-0.26308 l -0.947085,-0.27059 q -0.901986,-0.25932 -1.428144,-0.74038 -0.526159,-0.48106 -0.526159,-1.25902 0,-0.64643 0.34952,-1.12749 0.353277,-0.48481 0.947085,-0.75165 0.597565,-0.2706 1.334187,-0.2706 0.744138,0 1.322912,0.26684 0.578775,0.26308 0.917019,0.72159 0.342003,0.45851 0.360795,1.04104 z"
         style="font-weight:normal"
         id="path33377" />
      <path
         d="m 102.8622,232.35229 v 0.75166 h -1.23271 v 3.36741 q 0,0.37583 0.10899,0.56374 0.11275,0.18416 0.28563,0.24805 0.17664,0.0601 0.37207,0.0601 0.14657,0 0.24053,-0.015 0.094,-0.0188 0.15033,-0.0301 l 0.1804,0.79675 q -0.0902,0.0338 -0.25181,0.0676 -0.1616,0.0376 -0.40965,0.0376 -0.37583,0 -0.73662,-0.16161 -0.35704,-0.16161 -0.59381,-0.49233 -0.23301,-0.33073 -0.23301,-0.83434 v -3.60794 h -0.871922 v -0.75166 h 0.871922 v -1.38304 h 0.88695 v 1.38304 z"
         style="font-weight:normal"
         id="path33379" />
      <path
         d="m 107.83816,235.7648 v -3.41251 h 0.88695 v 5.77271 h -0.88695 v -0.97715 h -0.0601 q -0.20294,0.43972 -0.63139,0.7479 -0.42844,0.30442 -1.08238,0.30442 -0.81179,0 -1.33795,-0.53744 -0.52615,-0.53743 -0.52615,-1.64236 v -3.66808 h 0.88695 v 3.60794 q 0,0.63139 0.35328,1.00722 0.35703,0.37583 0.9095,0.37583 0.33073,0 0.67273,-0.16912 0.34576,-0.16913 0.57877,-0.51865 0.23678,-0.34951 0.23678,-0.89071 z"
         style="font-weight:normal"
         id="path33381" />
      <path
         d="m 112.91933,232.35229 v 0.75166 h -1.29284 v 5.02105 h -0.88695 v -5.02105 h -0.93206 v -0.75166 h 0.93206 v -0.79675 q 0,-0.4961 0.23301,-0.82682 0.23301,-0.33073 0.60508,-0.4961 0.37207,-0.16536 0.78548,-0.16536 0.32697,0 0.53368,0.0526 0.2067,0.0526 0.30817,0.0977 l -0.25556,0.76669 q -0.0677,-0.0226 -0.18791,-0.0564 -0.11651,-0.0338 -0.30818,-0.0338 -0.43972,0 -0.63515,0.22174 -0.19167,0.22174 -0.19167,0.65018 v 0.58629 z"
         style="font-weight:normal"
         id="path33383" />
      <path
         d="m 116.73775,232.35229 v 0.75166 h -1.29285 v 5.02105 h -0.88695 v -5.02105 h -0.93205 v -0.75166 h 0.93205 v -0.79675 q 0,-0.4961 0.23301,-0.82682 0.23301,-0.33073 0.60508,-0.4961 0.37207,-0.16536 0.78548,-0.16536 0.32697,0 0.53368,0.0526 0.2067,0.0526 0.30818,0.0977 l -0.25557,0.76669 q -0.0677,-0.0226 -0.18791,-0.0564 -0.11651,-0.0338 -0.30818,-0.0338 -0.43972,0 -0.63515,0.22174 -0.19167,0.22174 -0.19167,0.65018 v 0.58629 z"
         style="font-weight:normal"
         id="path33385" />
    </g>
    <circle
       style="fill:url(#linearGradient28964);fill-opacity:1;stroke-width:0.529167;stroke-linecap:round;stroke-linejoin:round;paint-order:markers stroke fill"
       id="path28876"
       cx="81.304733"
       cy="215.67244"
       r="10.583333" />
    <g
       aria-label="XSS"
       id="text29287"
       style="font-size:10.5833px;line-height:1.25;stroke-width:0.264583">
      <path
         d="m 75.398138,215.63792 2.676831,3.93773 h -2.072218 l -1.803502,-2.63549 -1.787999,2.63549 h -2.082553 l 2.67683,-3.93773 -2.573478,-3.77753 h 2.077386 l 1.689814,2.48562 1.684646,-2.48562 h 2.087722 z"
         style="font-weight:bold;-inkscape-font-specification:'sans-serif Bold'"
         id="path33406" />
      <path
         d="m 84.627519,212.10326 v 1.63297 q -0.635618,-0.28421 -1.24023,-0.42891 -0.604612,-0.14469 -1.142045,-0.14469 -0.713133,0 -1.054196,0.19637 -0.341064,0.19637 -0.341064,0.60978 0,0.31006 0.227376,0.48575 0.232543,0.17054 0.837155,0.29456 l 0.847491,0.17053 q 1.286739,0.25838 1.82934,0.78548 0.542601,0.5271 0.542601,1.49861 0,1.27641 -0.759641,1.90169 -0.754474,0.62011 -2.309929,0.62011 -0.733803,0 -1.472774,-0.13952 -0.738971,-0.13953 -1.477941,-0.41341 v -1.67948 q 0.73897,0.39274 1.426265,0.59428 0.692462,0.19637 1.333247,0.19637 0.651121,0 0.997352,-0.21704 0.346231,-0.21704 0.346231,-0.62012 0,-0.36173 -0.23771,-0.5581 -0.232544,-0.19637 -0.935341,-0.3514 l -0.769976,-0.17053 q -1.157549,-0.24805 -1.694982,-0.79065 -0.532265,-0.5426 -0.532265,-1.46244 0,-1.15238 0.744138,-1.77249 0.744138,-0.62012 2.139397,-0.62012 0.635618,0 1.30741,0.0982 0.671791,0.093 1.390091,0.28421 z"
         style="font-weight:bold;-inkscape-font-specification:'sans-serif Bold'"
         id="path33408" />
      <path
         d="m 91.774347,212.10326 v 1.63297 q -0.635618,-0.28421 -1.24023,-0.42891 -0.604613,-0.14469 -1.142046,-0.14469 -0.713132,0 -1.054196,0.19637 -0.341063,0.19637 -0.341063,0.60978 0,0.31006 0.227376,0.48575 0.232543,0.17054 0.837155,0.29456 l 0.847491,0.17053 q 1.286739,0.25838 1.82934,0.78548 0.542601,0.5271 0.542601,1.49861 0,1.27641 -0.759642,1.90169 -0.754473,0.62011 -2.309929,0.62011 -0.733803,0 -1.472773,-0.13952 -0.738971,-0.13953 -1.477942,-0.41341 v -1.67948 q 0.738971,0.39274 1.426265,0.59428 0.692462,0.19637 1.333248,0.19637 0.651121,0 0.997352,-0.21704 0.346231,-0.21704 0.346231,-0.62012 0,-0.36173 -0.237711,-0.5581 -0.232543,-0.19637 -0.93534,-0.3514 l -0.769977,-0.17053 q -1.157548,-0.24805 -1.694981,-0.79065 -0.532266,-0.5426 -0.532266,-1.46244 0,-1.15238 0.744138,-1.77249 0.744139,-0.62012 2.139398,-0.62012 0.635618,0 1.30741,0.0982 0.671791,0.093 1.390091,0.28421 z"
         style="font-weight:bold;-inkscape-font-specification:'sans-serif Bold'"
         id="path33410" />
    </g>
  </g>
</svg>
